<?xml version="1.0" encoding="utf-8"?>
<!-- Generator: Adobe Illustrator 26.0.0, SVG Export Plug-In . SVG Version: 6.00 Build 0)  -->
<svg version="1.1" id="Layer_1" xmlns="http://www.w3.org/2000/svg" xmlns:xlink="http://www.w3.org/1999/xlink" x="0px" y="0px"
	 viewBox="0 0 792 612" style="enable-background:new 0 0 792 612;" xml:space="preserve">
<style type="text/css">
	.st0{fill:#DBDADA;}
	.st1{fill:#FFFFFF;}
	.st2{fill-rule:evenodd;clip-rule:evenodd;fill:#4C90CB;}
	.st3{fill-rule:evenodd;clip-rule:evenodd;fill:#82B4DA;}
</style>
<g>
	<path class="st0" d="M335.76,291.93h-38.35v22.15h42.31l-1.26,7.65h-50.14v-63.92h49.42v7.56h-40.33v18.91h38.35V291.93z"/>
	<path class="st0" d="M341.69,276.18h9.09V261.5h8.55v14.68h11.88v6.75h-11.88v24.94c0,5.22,1.35,7.56,6.3,7.56
		c1.26,0,3.15-0.09,4.5-0.45v6.3c-2.07,0.72-4.5,0.9-7.11,0.9c-9.45,0-12.24-4.23-12.24-13.23v-26.02h-9.09V276.18z"/>
	<path class="st0" d="M387.68,254.03v30.34c1.62-3.33,5.76-9.45,16.84-9.45c10.35,0,17.29,6.39,17.29,19.26v27.55h-8.64v-26.2
		c0-7.66-2.79-13.42-11.25-13.42c-9.63,0-14.22,7.66-14.22,17.2v22.42h-8.55v-67.7H387.68z"/>
	<path class="st1" d="M438.8,265.47h-24.4v-7.66h57.8v7.66h-24.31v56.26h-9.09V265.47z"/>
	<path class="st1" d="M468.31,288.6c0-4.14,0-8.28-0.09-12.42h8.37c0.09,1.35,0.27,6.12,0.27,10.26
		c2.97-7.03,9.54-11.62,18.45-11.52v8.19c-10.44-0.09-18.45,6.22-18.45,19.63v18.99h-8.55V288.6z"/>
	<path class="st1" d="M544.38,308.41c0,4.5,0,8.92,0.09,13.33h-8.28c-0.18-1.26-0.27-4.5-0.36-7.74c-2.25,5.22-6.3,9-16.3,9
		c-9.63,0-17.1-5.31-17.1-18.54v-28.27h8.55v26.65c0,6.93,2.7,12.88,10.89,12.88c9.81,0,13.96-5.67,13.96-18.91v-20.62h8.55V308.41z
		"/>
	<path class="st1" d="M561.55,307.96c1.62,5.4,6.21,8.55,14.49,8.55c8.73,0,11.79-3.06,11.79-7.2c0-3.78-2.25-6.39-13.86-7.74
		c-16.03-1.98-19-7.56-19-13.23c0-5.94,4.68-13.41,19.27-13.41c15.75,0,20.17,8.1,20.71,13.59h-8.64c-0.63-2.71-2.52-7.2-12.51-7.2
		c-8.46,0-10.26,3.6-10.26,6.21c0,3.42,2.16,5.49,12.6,6.84c17.11,2.34,20.26,7.56,20.26,14.32c0,8.19-6.21,14.31-20.89,14.31
		c-13.32,0-21.06-5.58-22.6-15.03H561.55z"/>
	<path class="st1" d="M599.35,276.18h9.09V261.5H617v14.68h11.88v6.75H617v24.94c0,5.22,1.35,7.56,6.3,7.56
		c1.26,0,3.15-0.09,4.5-0.45v6.3c-2.07,0.72-4.5,0.9-7.11,0.9c-9.45,0-12.24-4.23-12.24-13.23v-26.02h-9.09V276.18z"/>
</g>
<g>
	<path class="st2" d="M207.19,228.39c-15.21,7.68-29.86,16.44-43.91,26.38c-3.95,2.83-3.95,2.89-3.95,7.71v38.99
		c0,2.53,0.5,5.04,1.33,7.44c3.21,9.22,11.84,18.05,21.64,23.12l24.9,12.87v-24.41l-16.51-8.53c-4.3-2.22-5.41-3.17-1.17-5.66
		c6.3-3.7,11.51-6.51,17.68-9.66v-24.41c-9.81,5.01-19.39,10.46-28.7,16.33l0.01-17.05c0-2.14,0-2.2,1.7-3.28
		c8.92-5.55,18.31-10.83,26.99-15.26V228.39z"/>
	<path class="st3" d="M207.19,228.39v24.57c8.14-4.15,16.17-7.84,24.13-11.17C223.44,236.99,215.4,232.53,207.19,228.39"/>
	<path class="st3" d="M207.19,296.62c16.3-8.31,31.92-14.6,47.85-20.67v-18.17c0-5.16-0.99-5.36-6.08-3.66
		c-14.41,5.21-28.31,11.23-41.76,18.09V296.62z"/>
	<path class="st3" d="M207.19,344.89l23.62-12.2l8.22-4.25c14.95-7.62,16.01-17.3,16-26.92v-5.77l-47.85,24.73V344.89z"/>
</g>
</svg>
